<svg xmlns="http://www.w3.org/2000/svg" xmlns:xlink="http://www.w3.org/1999/xlink" width="396.089" height="91.25" viewBox="0 0 396.089 91.25">
  <defs>
    <clipPath id="clip-path">
      <path id="Path_24" data-name="Path 24" d="M90.6,105.1a43.249,43.249,0,0,0-5.4-14.4,43.6,43.6,0,0,0-10-11.8,44.387,44.387,0,0,0-46.3-6.8,20.208,20.208,0,0,0-2.7,1.5c-.6.5-1,.9-.8,1.1.3.4,2.1-.3,4.3-1.2a43.534,43.534,0,0,1,22.8-2.9l.7.1.7.1c.5.1.9.2,1.4.3a28.638,28.638,0,0,1,2.8.7,36.175,36.175,0,0,1,5.5,2l1.3.6a8.265,8.265,0,0,1,1.3.7,20.13,20.13,0,0,1,2.5,1.4,37.232,37.232,0,0,1,4.7,3.4,44.534,44.534,0,0,1,7.1,7.3,42.633,42.633,0,0,1,5.2,8.7,39.67,39.67,0,0,0-9.3-12.5,41.95,41.95,0,0,0-4.5-3.9,44.524,44.524,0,0,0-5.1-3.3,54.489,54.489,0,0,0-5.5-2.5,30.3,30.3,0,0,0-5.9-1.6A43.582,43.582,0,0,0,41,71.8a42.233,42.233,0,0,0-13.4,4.4,46.666,46.666,0,0,0-11.4,8.4A44.436,44.436,0,0,0,7.7,96.4a52.663,52.663,0,0,0-3.6,9.5V109a49.391,49.391,0,0,1,1.3-5.2A41.933,41.933,0,0,1,8,97.5a46.752,46.752,0,0,1,8.3-11.7,44.337,44.337,0,0,1,11.3-8.4A42.233,42.233,0,0,1,41,73a43.582,43.582,0,0,1,14.4.3c1.3.3,2.6.6,3.8,1a34.4,34.4,0,0,0-6.3-1,33.15,33.15,0,0,0-6.3,0,40.573,40.573,0,0,0-22.4,7.2A41.953,41.953,0,0,0,9.5,98.8a39.5,39.5,0,0,0-2.6,8.9c-.2,1.4-.4,2.8-.5,4.2a.52.52,0,0,1,.2.4,7.719,7.719,0,0,0,.2,1.5.533.533,0,0,1,.7.5,19.219,19.219,0,0,1,0,2.4v.6c.1.5.3.9.4,1.4a41.609,41.609,0,0,1,1.3-14.5A38.977,38.977,0,0,1,16.4,90,39.446,39.446,0,0,1,28.8,79.5a.349.349,0,0,0,.2.1,3.711,3.711,0,0,0,.9-.2,6.117,6.117,0,0,0,1.2-.5,40.5,40.5,0,0,1,6.8-2.8,36.455,36.455,0,0,1,12.7-1,12.1,12.1,0,0,0-1.9-.1H46a49.54,49.54,0,0,0-5.4.6,3.992,3.992,0,0,0-1.3.4c-.3.1-.5.3-.4.4s.3.1.7.1a7.084,7.084,0,0,0,1.4-.1,37.883,37.883,0,0,1,14.6.5,54.9,54.9,0,0,1,13.1,5A37.049,37.049,0,0,1,79.6,94a36.04,36.04,0,0,1-4.9,42.4,3.278,3.278,0,0,0-.6.8q-.15.3.3,0A35.634,35.634,0,0,0,83,124.3a32.03,32.03,0,0,0,2-8.1,36.12,36.12,0,0,0,.1-8.7,39.892,39.892,0,0,0-2-8.8,33.491,33.491,0,0,0-4.2-8.2,38.077,38.077,0,0,0-6.2-7.1l-.4-.4-.5-.4-.9-.8A23.07,23.07,0,0,0,69,80.4a34.538,34.538,0,0,0-4.1-2.5l-1-.5-1.1-.5c-.7-.3-1.4-.6-2.2-.9A31.848,31.848,0,0,1,67,78.6a37.871,37.871,0,0,1,6,3.8,16.466,16.466,0,0,0,1.5,1.7,42.335,42.335,0,0,1,4.4,5.1c-.1,0-.2-.1-.2,0-.2.1.2.9.8,1.7A40.746,40.746,0,0,1,86,106.2a.6.6,0,0,0,.1.4,40.285,40.285,0,0,1-13.3,36.9,8.745,8.745,0,0,1-1,.8c-.3.3-.7.5-1,.8l-1,.7-.5.4-.5.3-1.1.7-1.1.6c-.7.4-1.5.8-2.2,1.2a38.474,38.474,0,0,1-4.7,1.9,21.716,21.716,0,0,1-2.4.7l-1.2.3-1.2.3a39.064,39.064,0,0,1-19.8-1.1,5.637,5.637,0,0,0-1.2-.4q-.45,0,0,.3c0,.1-.2.1-.1.2a38.392,38.392,0,0,0,14.7,3.2,36.378,36.378,0,0,0,15.6-3.2,39.712,39.712,0,0,0,9.8-6.2,57.085,57.085,0,0,1-9,7.1A43.258,43.258,0,0,1,50,156a50.631,50.631,0,0,1-15.1-1.2h.4a5.987,5.987,0,0,0-1.2-.2h-.6c-.1.1.1.2.3.3a6.6,6.6,0,0,0,1.1.4,54.946,54.946,0,0,0,7,1.7,43.474,43.474,0,0,0,7.2.4,45.285,45.285,0,0,0,7.3-.8,44.436,44.436,0,0,0,7.1-2.1,46.206,46.206,0,0,0,6.7-3.3,51.3,51.3,0,0,0,6-4.4,16.6,16.6,0,0,0,1.4-1.3l1.3-1.3,1.3-1.4a17.411,17.411,0,0,1,1.2-1.4,43.146,43.146,0,0,0,4.2-6.3,44.643,44.643,0,0,0,4.9-14.4,37.316,37.316,0,0,0,.1-15.6m-7.2,30.2a42.218,42.218,0,0,1-11.6,12.6,45.238,45.238,0,0,0,8.8-9.2,43.184,43.184,0,0,0,6-11.2,40.38,40.38,0,0,0,2.4-8.4A40.673,40.673,0,0,1,83.4,135.3Z"/>
    </clipPath>
    <linearGradient id="linear-gradient" x1="1.56" y1="2.808" x2="1.57" y2="2.808" gradientUnits="objectBoundingBox">
      <stop offset="0" stop-color="#95c020"/>
      <stop offset="0.733" stop-color="#95c020"/>
      <stop offset="0.758" stop-color="#98c227"/>
      <stop offset="0.796" stop-color="#a2c83b"/>
      <stop offset="0.842" stop-color="#b1d15c"/>
      <stop offset="0.893" stop-color="#c7de89"/>
      <stop offset="0.948" stop-color="#e2eec3"/>
      <stop offset="1" stop-color="#fff"/>
    </linearGradient>
    <clipPath id="clip-path-2">
      <path id="Path_26" data-name="Path 26" d="M94.6,116.4c.1-1,.2-1.9.3-2.8h-.1c0,.1-.1.2-.1.3l-.6,3.6c-.3,1.6-.7,3.2-1.1,4.8a6.944,6.944,0,0,1-.5,1.3.349.349,0,0,1-.2.1c.2-.7.4-1.4.6-2.2h-.1c-.1.3-.3.7-.4,1h-.1c.1-.4.2-.9.3-1.4-.2,0-.2-.1-.2-.2.2-.9.4-1.7.6-2.6.2-1.5.4-3,.5-4.5.1-1.1.2-2.2.2-3.3a38.662,38.662,0,0,0-.3-4.8,34.377,34.377,0,0,0-2-7.8c-.6-1.7-1.4-3.3-2.1-4.9a21.16,21.16,0,0,0-1.1-2.1c-.1-.1-.2-.3-.4-.4,1,2.3,2,4.5,2.9,6.9a34.681,34.681,0,0,1,1.9,7.2h-.1c-.1-.3-.2-.5-.3-.8h-.1v.3c.2,1.3.4,2.7.5,4a17.1,17.1,0,0,1,0,3.2,46.315,46.315,0,0,1-1.2,9c-.2.9-.5,1.7-.7,2.6,0,.1-.1.2-.2.4h-.1v-.2c.4-1.8.8-3.6,1.1-5.3.1-.3,0-.7.1-1.1,0-.1,0-.1-.1-.2h-.1c-.1.2-.1.5-.2.7-.2,1.1-.5,2.3-.7,3.4a19.972,19.972,0,0,1-1.1,4.2c-.5,1.3-1.1,2.6-1.7,3.8a1.381,1.381,0,0,0-.3.4h-.1v-.2c.3-.9.6-1.8,1-2.7l1.2-3.3a9.006,9.006,0,0,0,.3-1.6c.3-1.2.6-2.3.9-3.5a7.772,7.772,0,0,0,.2-1.6,9.862,9.862,0,0,1,.3-2.4,41.93,41.93,0,0,0,.3-5v-.3h.1c0,.2.1.4.1.7a18.188,18.188,0,0,1,0,3.3c-.1.8-.1,1.6-.2,2.4v.3h.1c.1-.5.1-.9.2-1.4a32.4,32.4,0,0,0,.2-4.4c-.1-1-.2-1.9-.3-2.9a.367.367,0,0,0-.1-.3,1.136,1.136,0,0,1-.3-.8v-.4c0-.2.1-.4-.1-.6-.1-.1-.1-.2-.1-.4a52.28,52.28,0,0,0-1.2-5.4,25.99,25.99,0,0,0-1.3-3.6c-.6-1.3-1.3-2.6-1.9-3.9-.4-.8-.9-1.7-1.4-2.5l-1.5-2.4c-.5-.7-1-1.4-1.5-2.2a16.471,16.471,0,0,0-2.2-2.4l-.5-.5a26.819,26.819,0,0,0-3-2.8c-.6-.5-1.1-1-1.7-1.5a19.571,19.571,0,0,0-3-2c-1.7-1-3.4-2-5.1-2.9a21.7,21.7,0,0,0-3.5-1.5c-2.2-.7-4.5-1.2-6.7-1.8a25.123,25.123,0,0,0-2.7-.4c-1.1-.1-2.2-.3-3.2-.4a22.621,22.621,0,0,0-5.2.1c-2,.2-4,.4-6,.8a46.76,46.76,0,0,0-9.6,3.1c-1.1.5-2.2,1-3.3,1.6A22.606,22.606,0,0,0,24,74.9c-1,.6-2,1.3-3,2a33.572,33.572,0,0,0-2.9,2.4,32.217,32.217,0,0,0-3.2,3.2c-.6.7-1.2,1.3-1.8,2a25.667,25.667,0,0,0-2.8,3.7c-.8,1.3-1.6,2.7-2.4,4.1-1.1,2-2,4-2.9,6a38.591,38.591,0,0,0-1.7,5.8,33.533,33.533,0,0,0-.7,10,59.832,59.832,0,0,0,.9,7.4,22.933,22.933,0,0,0,2.2,6.2,2.507,2.507,0,0,0,.4.7,2.506,2.506,0,0,1,.4.7l2.4,4.5.3.6h.2c-.6-1.2-1.2-2.4-1.7-3.6a37.983,37.983,0,0,1-1.8-4.7,38.369,38.369,0,0,1-1.1-4.6c-.2-1.2-.4-2.4-.6-3.7a24.519,24.519,0,0,1-.2-2.7v-.4h.1c0,.1.1.2.1.3a19.419,19.419,0,0,1,.2,2.4,28.82,28.82,0,0,0,1.3,6.5c.3.9.6,1.8.9,2.6a24.03,24.03,0,0,0,1.1,2.3c0,.1.1.1.1.2h.1c-.1-.2-.1-.4-.2-.5a42.723,42.723,0,0,1-1.8-6.1c-.3-1.8-.5-3.7-.8-5.6v-.2c.3,1.6.5,3.2.8,4.7.1.5.3,1.1.4,1.6a10.461,10.461,0,0,0,.4,1.7c.3.8.5,1.6.8,2.4V126c-.1-.4-.2-.9-.3-1.3-.3-1.1-.5-2.3-.8-3.4V121h.1c.1.3.3.7.4,1,.3,1,.6,1.9.8,2.9.1-.3.1-.6.2-.8a61.764,61.764,0,0,1-1.2-6.2.367.367,0,0,0-.1-.3h.1l.2.2v-.5c-.1-.4-.1-.7-.2-1.1-.1-1.1-.3-2.1-.3-3.2a35.98,35.98,0,0,1,.6-7.3A37.727,37.727,0,0,1,8.8,100a65.892,65.892,0,0,1,3.4-7.1,13.029,13.029,0,0,1,1-1.5,22.63,22.63,0,0,1,1.3-2c.6-.8,1.3-1.7,2-2.5.4-.5.9-1,1.3-1.5l.6-.6h.1V85a1.576,1.576,0,0,0,.7-.7c0-.2.1-.3.2-.5.6-.6,1.2-1.1,1.8-1.7.1-.1.2-.2.4-.1.1,0,.2.1.2,0,.3-.3.7-.5,1-.8-.2.1-.4.1-.6.2v-.1a8.554,8.554,0,0,1,2.2-1.5l.1.1A14.96,14.96,0,0,0,23.2,81v.1c.1-.1.2-.1.3-.2.7-.5,1.4-.9,2.2-1.4.2-.1.4-.1.5-.2s.2-.2.3-.2a.446.446,0,0,0-.5,0c-.3.2-.5.3-.8.5a.367.367,0,0,0-.3.1l.1-.1c2-1.1,4-2.3,6.1-3.2,1.1-.5,2.3-1,3.4-1.5a29.867,29.867,0,0,1,5.1-1.5,3.4,3.4,0,0,1,1-.1A3.529,3.529,0,0,0,42,73a.6.6,0,0,1,.4-.1h3a28.1,28.1,0,0,0,2.9-.1h.2a33.036,33.036,0,0,1,7.6,1c.7.2,1.5.3,2.3.5a24.128,24.128,0,0,1,2.5.8c1.2.5,2.5.9,3.7,1.4A36.52,36.52,0,0,1,68,78.3c1,.6,2,1.3,3,2a6.885,6.885,0,0,1,1.3,1.1c1,.9,1.9,1.7,2.9,2.6a34.2,34.2,0,0,1,4.4,4.9c1,1.4,1.8,2.8,2.7,4.2.1.1.1.2.2.3h.1v-.2c-.2-.5-.4-1.1-.6-1.6a7.74,7.74,0,0,1-.7-1.6,3.528,3.528,0,0,0-.8-1.3,14.629,14.629,0,0,0-.9-1.3c-.6-.7-1.1-1.4-1.7-2.1-.1-.1-.2-.3-.3-.4v-.2a.139.139,0,0,1,.2,0c.1,0,.2.1.3.2.3.4.7.8,1,1.2A9.516,9.516,0,0,0,81,88.2c.2.2.4.4.4.6a.758.758,0,0,0,.2.4,7.993,7.993,0,0,0,1.3,1.3.367.367,0,0,0,.3.1c.1,0,.1-.2.2-.3V90a.909.909,0,0,1,.4.8,2.934,2.934,0,0,0,.3,1c.9,1.8,1.8,3.7,2.6,5.5.4,1,.7,2,1,3a51.03,51.03,0,0,1,1.3,6.8c.1,1.1.4,2.2.5,3.3a30.955,30.955,0,0,1-.2,4.3,2.769,2.769,0,0,1-.1.9c-.2,1.1-.4,2.1-.5,3.2a19.394,19.394,0,0,1-1.3,5.4c-.7,1.7-1.4,3.4-2.2,5.1-.3.6-.7,1.2-1.1,1.9-.4.6-.8,1.3-1.2,1.9l-1.5,1.8L79.6,137c-.4.5-.9.9-1.3,1.4l-3,3-2.1,1.8c-1.2.9-2.3,1.8-3.5,2.6a36.418,36.418,0,0,1-3.9,2.3c-1.4.7-2.9,1.3-4.3,1.9a33.851,33.851,0,0,1-6.1,2.1c-.2,0-.3,0-.4-.1a.367.367,0,0,0-.3-.1,18.917,18.917,0,0,0-2.3.5,14.571,14.571,0,0,1-5.1-.1c-.6-.1-1.3-.1-1.9-.2a.367.367,0,0,1-.3-.1v-.1c1.7.1,3.3.1,5,.2V152c-1.6-.3-3.3-.5-4.9-.8v.1a3.091,3.091,0,0,0,.8.2v.1a15.05,15.05,0,0,1-6.3-1.2,19.923,19.923,0,0,0,4.2.4c-1.2-.3-2.5-.6-3.7-1s-2.4-.9-3.6-1.4h0a29.1,29.1,0,0,1-3-1.7,5.94,5.94,0,0,1-.8-.4v-.1a.1.1,0,0,1,.1.1c-.4-.3-.9-.7-1.3-1a4.62,4.62,0,0,1-.7-.7,7.9,7.9,0,0,1-2.3-1.4,2.22,2.22,0,0,0-.5-.4,17.063,17.063,0,0,0-3.9-1.7,9.863,9.863,0,0,0-2.4-.3,3.4,3.4,0,0,1-1-.1,1.952,1.952,0,0,0-.7.1,2.92,2.92,0,0,0-.9.2,1.7,1.7,0,0,0-1,.6c-.2.2-.3.4-.5.6a1.613,1.613,0,0,0-.3.9,1.7,1.7,0,0,1-.1.7,2.854,2.854,0,0,0,.4,2.2c.5.8,1,1.7,1.6,2.5.2.3.6.5.8.8a2.182,2.182,0,0,1,.4.5.969.969,0,0,0,.8.7,22.011,22.011,0,0,1,2.6,1.5,37.589,37.589,0,0,0,6.8,3.1c2.8,1,5.6,1.9,8.4,2.6a45.831,45.831,0,0,0,6.3,1,51.859,51.859,0,0,0,5.6.1,31.018,31.018,0,0,0,6.8-1,51.962,51.962,0,0,0,7.6-2.5c1.2-.5,2.4-1,3.6-1.6.9-.4,1.7-1,2.6-1.5.6-.3,1.1-.7,1.7-1,.8-.5,1.6-1.1,2.4-1.6a27.857,27.857,0,0,0,4.2-3.5c.9-.9,1.9-1.8,2.8-2.8l.3-.3.6-.6c.1-.1.1-.2.2-.2v-.1c-.1,0-.2,0-.2.1a6.469,6.469,0,0,1-.9.8c-1,.9-2,1.9-3,2.8-.7.6-1.5,1.2-2.3,1.8-1,.7-2.1,1.5-3.2,2.2-.6.4-1.1.8-1.7,1.2a10.375,10.375,0,0,1-1,.4.1.1,0,0,0-.1-.1l.3-.3c.6-.4,1.2-.7,1.7-1.1a27.289,27.289,0,0,0,4.3-3.3c.4-.3.8-.7,1.2-1a19.678,19.678,0,0,0,2.5-2.5c1.3-1.4,2.7-2.9,4-4.4a38.123,38.123,0,0,0,2.4-3.2,54.575,54.575,0,0,0,4.1-7.5,29.556,29.556,0,0,0,1.4-4.2v-.2c-.1,0-.1.1-.3.2a2.354,2.354,0,0,0,.2-.8c.1.1.1.1.1.2.7-2.2,1-4.5,1.5-6.8h-.1c0-.2-.1-.1-.1,0M5.3,125.5l.6,1.5H5.8a4.424,4.424,0,0,1-.5-1.5ZM6,112.8a2.9,2.9,0,0,1,0-1.6A4.3,4.3,0,0,1,6,112.8Zm.5,6.4a2.727,2.727,0,0,1-.2-1.5,8.874,8.874,0,0,1,.2,1.5Zm46-47.3c-1-.1-1.9-.1-2.9-.2a1.7,1.7,0,0,1-.7-.1v-.1c.2,0,.4-.1.6-.1,1,0,2,.1,3.1.1.1,0,.2.1.3.2C52.7,71.8,52.6,71.9,52.5,71.9Zm8.5-1h-.5c-1-.2-1.9-.4-2.9-.7a41.323,41.323,0,0,0-7-1.4h-.2v-.1h.2a9.7,9.7,0,0,1,1.7.1c.8.1,1.5.2,2.3.3a32.747,32.747,0,0,1,6.2,1.4c.1,0,.3.1.3.2C61.3,70.7,61.2,70.8,61,70.9Zm14.8,7.9-.9-.6c-.8-.5-1.6-1.1-2.4-1.6s-1.6-1-2.5-1.5a25.432,25.432,0,0,0-2.8-1.6c-1.6-.8-3.3-1.5-5-2.2-.1,0-.1-.1-.2-.1h.3a16.073,16.073,0,0,1,3.3,1.2,43.022,43.022,0,0,1,6,3.2A19.778,19.778,0,0,1,75,78.1a1.853,1.853,0,0,1,.8.7ZM88.2,98.7c-.3-1-.7-2-1-3h.1a9.542,9.542,0,0,1,.9,3ZM62.6,155.3a21.742,21.742,0,0,1,4.2-1.7C66.7,154,63.3,155.4,62.6,155.3Zm24.5-25.6h0a.975.975,0,0,1-.4.9.1.1,0,0,1-.1-.1A5.58,5.58,0,0,0,87.1,129.7ZM86,131.5a1.756,1.756,0,0,1-.4.5C85.5,131.6,85.6,131.5,86,131.5ZM74.1,145h0l2.4-2.4a45.863,45.863,0,0,0,3.7-3.9,15.383,15.383,0,0,1,1.2-1.3c.1-.1.2-.1.3-.2C80.5,139.3,74.7,145,74.1,145Zm13.2-13.8c-.7,1.2-1.3,2.4-2.1,3.6a6.228,6.228,0,0,1-1.4,1.8,21.462,21.462,0,0,0-2.3,2.8,1.387,1.387,0,0,1-.8.7h-.1c.1-.1.1-.2.2-.3.8-1,1.6-1.9,2.4-2.8a9.382,9.382,0,0,0,.9-1.2c.7-1.1,1.4-2.3,2.1-3.4a6.071,6.071,0,0,1,.7-1,1.38,1.38,0,0,1,.4-.3Zm1.9-4.1c.3-1,.6-1.9.9-2.9h.1A5.6,5.6,0,0,1,89.2,127.1Z"/>
    </clipPath>
    <linearGradient id="linear-gradient-2" x1="1.08" y1="1.796" x2="1.086" y2="1.796" gradientUnits="objectBoundingBox">
      <stop offset="0" stop-color="#f29100"/>
      <stop offset="0.221" stop-color="#fabf34"/>
      <stop offset="1" stop-color="#95c020"/>
    </linearGradient>
    <clipPath id="clip-path-3">
      <path id="Path_28" data-name="Path 28" d="M83.4,135.4h0l.9-1.2h-.1c-.3.4-.5.8-.8,1.2"/>
    </clipPath>
    <linearGradient id="linear-gradient-3" x1="29.739" y1="91.474" x2="30.175" y2="91.474" xlink:href="#linear-gradient-2"/>
    <clipPath id="clip-path-4">
      <path id="Path_30" data-name="Path 30" d="M91.6,124.9a.6.6,0,0,0,.3-.6h-.1a1.072,1.072,0,0,0-.2.6"/>
    </clipPath>
    <linearGradient id="linear-gradient-4" x1="56.926" y1="210.844" x2="57.885" y2="210.844" xlink:href="#linear-gradient-2"/>
    <clipPath id="clip-path-5">
      <path id="Path_32" data-name="Path 32" d="M45.6,71.2c.2.2.4.2.5,0h-.5"/>
    </clipPath>
    <linearGradient id="linear-gradient-5" x1="128.408" y1="377.11" x2="129.606" y2="377.11" xlink:href="#linear-gradient-2"/>
    <clipPath id="clip-path-6">
      <path id="Path_34" data-name="Path 34" d="M77,83.7a1.38,1.38,0,0,0-.3-.4h-.1c.1.3.2.4.4.4"/>
    </clipPath>
    <linearGradient id="linear-gradient-6" x1="89.658" y1="314.825" x2="90.857" y2="314.825" xlink:href="#linear-gradient-2"/>
    <clipPath id="clip-path-7">
      <path id="Path_36" data-name="Path 36" d="M68.1,144.8a4.875,4.875,0,0,1-.7.3c-1.2.6-2.4,1.3-3.6,1.9a49.142,49.142,0,0,1-6.3,2.6,17.428,17.428,0,0,1-6.8,1.2,20.073,20.073,0,0,1-4.2-.5.758.758,0,0,1-.4-.2V150h.3a4.868,4.868,0,0,1,1.2.1,22.621,22.621,0,0,0,5.2.1c.8-.1,1.6-.3,2.5-.4.1,0,.2-.1.3-.2-.4-.1-.7-.1-1-.2a2.768,2.768,0,0,1-.9-.1v-.1H54a19.868,19.868,0,0,0,4.8-1.2c1.2-.4,2.3-1,3.4-1.4,1.1-.5,2.2-1,3.3-1.4a7.193,7.193,0,0,0,2.1-1.2c.8-.6,1.5-1.1,2.3-1.7,1.4-1,2.7-2,4-3.1a34.886,34.886,0,0,0,4.5-4.9,6.815,6.815,0,0,1,1.2-1.2c.1,0,.1-.1.2-.1a59.865,59.865,0,0,1-4.5,5.5.349.349,0,0,0,.2-.1,4.62,4.62,0,0,0,.7-.7c.6-.6,1.3-1.2,1.9-1.8.7-.7,1.3-1.5,1.9-2.2a4.129,4.129,0,0,0,.7-1.1c.2-.3.3-.7.7-.8a.215.215,0,0,0,.2-.2,8.68,8.68,0,0,1,1.7-2.2.349.349,0,0,1,.2-.1h.1a.367.367,0,0,1-.1.3c-.4.7-.9,1.3-1.3,2L81,133.4a3.915,3.915,0,0,1-.8,1c-.5.6-.9,1.3-1.4,1.8a51.513,51.513,0,0,1-6.8,6.4c-1,.9-2.1,1.7-3.2,2.6a13.248,13.248,0,0,1-2.5,1.6,25.908,25.908,0,0,1-2.9,1.4c-.8.4-1.6.7-2.4,1.1a12.664,12.664,0,0,0-1.8.6,16,16,0,0,1-4.3,1.1,1.078,1.078,0,0,1-.7-.2l.9-.3a26.806,26.806,0,0,0,2.7-.7c1.6-.6,3.2-1.2,4.8-1.9a19.989,19.989,0,0,0,2.1-1,26.061,26.061,0,0,0,2.8-1.7c.2,0,.4-.2.6-.4h0"/>
    </clipPath>
    <linearGradient id="linear-gradient-7" x1="1.914" y1="3.799" x2="1.931" y2="3.799" xlink:href="#linear-gradient-2"/>
    <clipPath id="clip-path-8">
      <path id="Path_38" data-name="Path 38" d="M64.5,146.1h0a1.077,1.077,0,0,0-.8.2v.1a6.893,6.893,0,0,0,.8-.3"/>
    </clipPath>
    <linearGradient id="linear-gradient-8" x1="70.629" y1="157.734" x2="71.429" y2="157.734" xlink:href="#linear-gradient-2"/>
    <clipPath id="clip-path-9">
      <path id="Path_40" data-name="Path 40" d="M63,146.7v-.1c-.1.1-.3.1-.4.2v.1c.1,0,.2-.1.4-.2"/>
    </clipPath>
    <linearGradient id="linear-gradient-9" x1="122.651" y1="269.254" x2="124.022" y2="269.254" xlink:href="#linear-gradient-2"/>
    <clipPath id="clip-path-10">
      <path id="Path_42" data-name="Path 42" d="M87.5,102.8a.9.9,0,0,0,.1.5c.2,1.4.4,2.8.6,4.3,0,.2.1.3.1.5,0,.1-.1.2-.1.3s-.1.2-.1.3a36,36,0,0,1-.3,7.3c-.2,1.4-.5,2.7-.7,4.1-.2.8-.4,1.7-.6,2.5a3.508,3.508,0,0,1-.5.8c-.3.7-.5,1.4-.8,2.1-.3.6-.5,1.3-.8,1.9-.1.2-.1.4-.2.6a4997841136689.049,4997841136689.049,0,0,0-.6.8v.2c.1,0,.2,0,.2-.1l.1-.1a.1.1,0,0,1,.1-.1c.5-.4.6-1,.9-1.6.4-.8.9-1.7,1.3-2.5a26.709,26.709,0,0,0,1.3-4c.2-.6.4-1.2.6-1.9a28.41,28.41,0,0,0,.9-7.2,27.307,27.307,0,0,0-1.2-8.5c-.2,0-.2-.1-.3-.2h0"/>
    </clipPath>
    <linearGradient id="linear-gradient-10" x1="2.477" y1="7.427" x2="2.508" y2="7.427" xlink:href="#linear-gradient-2"/>
    <clipPath id="clip-path-11">
      <path id="Path_44" data-name="Path 44" d="M80.5,131.7l.5-.5c.7-.9,1.3-1.8,2-2.7,1-2.3,2.4-4.5,3.2-7a17.184,17.184,0,0,0,1-6c0-.5.1-1.1.1-1.6a32.15,32.15,0,0,0,0-8.2,47.179,47.179,0,0,0-1.5-6.5c-.1-.3-.2-.4-.4-.4-.2.1-.1.3-.1.5a31.557,31.557,0,0,1,1.6,8,34.628,34.628,0,0,1-1.1,12.8,36.093,36.093,0,0,1-3.4,8.4c-.6,1-1.2,2-1.8,2.9-.1.2-.2.2-.1.3h0"/>
    </clipPath>
    <linearGradient id="linear-gradient-11" x1="2.106" y1="5.964" x2="2.13" y2="5.964" xlink:href="#linear-gradient-2"/>
    <clipPath id="clip-path-12">
      <path id="Path_46" data-name="Path 46" d="M29.7,78.1c-.1.1-.3.1-.4.2s-.3.1-.4.2a1.02,1.02,0,0,1-.9.2.749.749,0,0,0-.8.5c-.1.3-.3.4-.6.6a11.782,11.782,0,0,0-1.9,1.1l-1.2.6a16.6,16.6,0,0,0-2.1,1.6c-.8.7-1.5,1.6-2.2,2.3l-.9.9a10.592,10.592,0,0,0-1,1.2A20.279,20.279,0,0,1,16,89.3a22.761,22.761,0,0,0-2.1,3c-.4.6-.8,1.1-1.2,1.7-.7,1.3-1.4,2.7-2.1,4a38.781,38.781,0,0,0-2.3,5.6c-.4,1.2-.6,2.4-.9,3.6a3.334,3.334,0,0,0,0,1,.31.31,0,0,0,.1.2c0-.1.1-.1.1-.2a20.472,20.472,0,0,1,1.1-4.9,39.162,39.162,0,0,1,2.2-5.1c.8-1.6,1.6-3.2,2.5-4.8a15.258,15.258,0,0,1,1.1-1.6c.4-.6.8-1.2,1.2-1.7.6-.8,1.2-1.5,1.8-2.3a32.429,32.429,0,0,1,4.9-4.9,16.6,16.6,0,0,1,2.1-1.6c1.3-.8,2.6-1.6,3.8-2.3.4-.2.9-.4,1.3-.6a.367.367,0,0,0,.1-.3h0"/>
    </clipPath>
    <linearGradient id="linear-gradient-12" x1="2.971" y1="5.096" x2="2.989" y2="5.096" xlink:href="#linear-gradient-2"/>
    <clipPath id="clip-path-13">
      <path id="Path_48" data-name="Path 48" d="M89.4,91.5c.2.6.5,1.2.7,1.8a31.98,31.98,0,0,1,1.8,5.2c.2.6.5,1.1.7,1.7a33.477,33.477,0,0,1,1.1,5.5c.1.6.2,1.1.3,1.6a4.869,4.869,0,0,1,.1,1.2v.2h.1v-.3a44.29,44.29,0,0,0-.6-5.1c-.4-1.9-.9-3.9-1.3-5.8a13.647,13.647,0,0,0-1.4-3.3c-.4-.8-.8-1.6-1.2-2.5a1.238,1.238,0,0,0-.3-.2h0"/>
    </clipPath>
    <linearGradient id="linear-gradient-13" x1="3.071" y1="11.053" x2="3.114" y2="11.053" xlink:href="#linear-gradient-2"/>
    <clipPath id="clip-path-14">
      <path id="Path_50" data-name="Path 50" d="M53.4,148.8a8.331,8.331,0,0,0,4.9-1.2,49.769,49.769,0,0,0-4.9,1.2"/>
    </clipPath>
    <linearGradient id="linear-gradient-14" x1="15.735" y1="30.438" x2="15.89" y2="30.438" xlink:href="#linear-gradient-2"/>
    <clipPath id="clip-path-15">
      <path id="Path_52" data-name="Path 52" d="M87.3,137.2c-.4.6-.7,1.1-1.1,1.7.4-.2,1.2-1.4,1.1-1.7"/>
    </clipPath>
    <linearGradient id="linear-gradient-15" x1="23.197" y1="69.876" x2="23.528" y2="69.876" xlink:href="#linear-gradient-2"/>
    <clipPath id="clip-path-16">
      <path id="Path_54" data-name="Path 54" d="M85.1,94.5a.778.778,0,0,0,.2.8h.1c0-.2.1-.3,0-.5l-.3-.3"/>
    </clipPath>
    <linearGradient id="linear-gradient-16" x1="67.265" y1="193.21" x2="68.065" y2="193.21" xlink:href="#linear-gradient-2"/>
    <clipPath id="clip-path-17">
      <path id="Path_56" data-name="Path 56" d="M83.6,94.9a1.855,1.855,0,0,0-.7-1.2,7.459,7.459,0,0,0,.7,1.2h0"/>
    </clipPath>
    <linearGradient id="linear-gradient-17" x1="45.371" y1="121.796" x2="45.876" y2="121.796" xlink:href="#linear-gradient-2"/>
    <clipPath id="clip-path-18">
      <path id="Path_58" data-name="Path 58" d="M7.1,113.3a1.412,1.412,0,0,0,.1.9c.2-.4,0-.6-.1-.9"/>
    </clipPath>
    <linearGradient id="linear-gradient-18" x1="124.132" y1="155.325" x2="124.871" y2="155.325" xlink:href="#linear-gradient-2"/>
    <clipPath id="clip-path-19">
      <path id="Path_60" data-name="Path 60" d="M84.8,93.6c-.1,0-.2-.1-.2,0a.446.446,0,0,0,0,.5.31.31,0,0,0,.2.1v-.6"/>
    </clipPath>
    <linearGradient id="linear-gradient-19" x1="90.769" y1="258.288" x2="91.835" y2="258.288" xlink:href="#linear-gradient-2"/>
    <clipPath id="clip-path-20">
      <path id="Path_62" data-name="Path 62" d="M33,76.7c.3.1.5-.1.7-.2-.3-.1-.5-.1-.7.2"/>
    </clipPath>
    <linearGradient id="linear-gradient-20" x1="117.263" y1="232.501" x2="118.136" y2="232.501" xlink:href="#linear-gradient-2"/>
    <clipPath id="clip-path-21">
      <path id="Path_64" data-name="Path 64" d="M94.9,115.2c0-.2.1-.5.1-.7h-.1c0,.2-.1.5-.1.7h.1"/>
    </clipPath>
    <linearGradient id="linear-gradient-21" x1="73.61" y1="213.071" x2="74.675" y2="213.071" xlink:href="#linear-gradient-2"/>
    <clipPath id="clip-path-22">
      <path id="Path_66" data-name="Path 66" d="M7.1,110.8v.5h.1v-.5H7.1"/>
    </clipPath>
    <linearGradient id="linear-gradient-22" x1="277.927" y1="364.246" x2="279.527" y2="364.246" xlink:href="#linear-gradient-2"/>
    <clipPath id="clip-path-23">
      <path id="Path_68" data-name="Path 68" d="M34.1,76.3c.2-.1.3-.1.5-.2V76a2.185,2.185,0,0,0-.5.3h0"/>
    </clipPath>
    <linearGradient id="linear-gradient-23" x1="163.591" y1="319.053" x2="164.791" y2="319.053" xlink:href="#linear-gradient-2"/>
    <clipPath id="clip-path-24">
      <path id="Path_70" data-name="Path 70" d="M88.8,90.5c.1.2.2.3.2.5h.1a.462.462,0,0,0-.3-.5h0"/>
    </clipPath>
    <linearGradient id="linear-gradient-24" x1="115.97" y1="252.618" x2="117.17" y2="252.618" xlink:href="#linear-gradient-2"/>
    <clipPath id="clip-path-25">
      <path id="Path_72" data-name="Path 72" d="M91.5,110.3a44.459,44.459,0,0,0-4.3-14.7,45.117,45.117,0,0,0-8.8-12.4A44.447,44.447,0,0,0,66,74.6a43.3,43.3,0,0,0-14.4-3.8,45.7,45.7,0,0,0-7.4,0c-.6.1-1.2.1-1.8.2l-1.8.3-1.8.4c-.6.1-1.2.3-1.8.4a40.5,40.5,0,0,0-6.9,2.5,39.961,39.961,0,0,0-6.3,3.7A42.233,42.233,0,0,0,18.2,83a39.459,39.459,0,0,0-4.6,5.5A38.47,38.47,0,0,0,10,94.7a41.226,41.226,0,0,0-2.4,6.7c-.1.4-.2.8-.3,1.1,0,.3,0,.5.1.4.1,0,.2-.2.4-.5.1-.3.3-.7.4-1.1l-.2.4a47.081,47.081,0,0,1,7.3-13.1A44,44,0,0,1,26.6,78.4a55.928,55.928,0,0,1,10.7-3.5,41.193,41.193,0,0,0-10.5,4.7A36.7,36.7,0,0,0,15.7,90.7a39.467,39.467,0,0,0-5.4,13.9c0,.1.1.1.2.1,0,.2,0,.3.1.3a2.506,2.506,0,0,1,.4-.7,1.268,1.268,0,0,0,.1-.6A38.67,38.67,0,0,1,21,86.8l.9-.9a6.47,6.47,0,0,1,.9-.8c.6-.5,1.3-1.1,1.9-1.6,1.3-1,2.7-1.9,4.1-2.8.7-.4,1.4-.8,2.2-1.2l1.1-.6,1.1-.5.6-.2.6-.2,1.2-.4a5.637,5.637,0,0,0,1.2-.4c.4-.1.8-.3,1.2-.4a39.069,39.069,0,0,1,19.8-.3,39.93,39.93,0,0,1,17.7,9.6l.3.3a39.743,39.743,0,0,1,9,13.8c.3.9.7,1.6.9,1.6a.349.349,0,0,0,.1-.2,35.826,35.826,0,0,1,1.8,6.4,8.511,8.511,0,0,0,.6,2.2,40.666,40.666,0,0,1-.2,7,37.982,37.982,0,0,1-1.4,6.7,18.458,18.458,0,0,0,.4-2.3l.2-1.2.1-1.2a38.538,38.538,0,0,0,.2-4.8c0-.8-.1-1.6-.1-2.4l-.2-1.8-.1-.6a44.134,44.134,0,0,0-2.4-9,39.19,39.19,0,0,0-4.5-8,37.609,37.609,0,0,0-6.1-6.5,37.1,37.1,0,0,0-7.2-4.7,31.651,31.651,0,0,0-7.8-2.8,33.9,33.9,0,0,0-15.2,0c-.3.1-.4.2-.1.2a3.278,3.278,0,0,0,1,0,34.155,34.155,0,0,1,14.2.5,35.746,35.746,0,0,1,13.4,6.6A36.33,36.33,0,0,1,82.2,98a37.939,37.939,0,0,1,4,15.6,52.208,52.208,0,0,1-3,13.5,38.342,38.342,0,0,1-7.5,12.3,7.293,7.293,0,0,0-.9,1.1,1.74,1.74,0,0,0-.3.7c0,.1.2.1.5-.1a7.3,7.3,0,0,0,1-.9,44.688,44.688,0,0,0,3.4-4,33.524,33.524,0,0,1-5.3,6,39.143,39.143,0,0,1-6,4,4.129,4.129,0,0,0-1.1.7,2.31,2.31,0,0,0-.7.7v.2a35.517,35.517,0,0,1-10.5,3.7,18.335,18.335,0,0,1-8.9,1.9l-.3.3a40.712,40.712,0,0,0,16.2-2.8,38.9,38.9,0,0,0,18.1-14.5,38.857,38.857,0,0,0,3.4-5.2,37.939,37.939,0,0,0,2.6-5.8c-.4,1.2-.8,2.5-1.3,3.7a39.472,39.472,0,0,1-7.6,12,42.663,42.663,0,0,1-10.9,8.6,47.14,47.14,0,0,1-13,4.7c-.2,0-.3.1-.5.1l3.6.3a41.967,41.967,0,0,0,11-4.3,43.523,43.523,0,0,0,10.9-8.7,42.866,42.866,0,0,0,7.6-12,39.325,39.325,0,0,0,1.9-5.8,39.663,39.663,0,0,0,1.1-11.9,39.8,39.8,0,0,0-.8-5.9,40.4,40.4,0,0,0-5.1-14.6,43.725,43.725,0,0,1,4.3,9,41.582,41.582,0,0,1,2.1,9.9,55.246,55.246,0,0,1,.2,5.8c-.1,1-.1,1.9-.2,2.9-.1.5-.1,1-.2,1.4l-.2,1.4a35.285,35.285,0,0,1-1.4,5.6l-.9,2.7c-.2.4-.4.9-.6,1.3l-.3.7-.3.6a41.778,41.778,0,0,1-14.8,17.2c-1.9,1.3-3.5,2.5-3.4,2.9.1.2.6.2,1.3-.1a14.075,14.075,0,0,0,2.7-1.4,43.989,43.989,0,0,0,15.8-18.1,44.3,44.3,0,0,0,3.6-23.1M57.8,74.1a42.851,42.851,0,0,0-12.4-1.2,50.369,50.369,0,0,0-12.3,2.2,41.02,41.02,0,0,1,16.6-2.6A42.3,42.3,0,0,1,66,76.7,46.029,46.029,0,0,0,57.8,74.1Z"/>
    </clipPath>
    <linearGradient id="linear-gradient-25" x1="1.365" y1="2.462" x2="1.373" y2="2.462" gradientUnits="objectBoundingBox">
      <stop offset="0" stop-color="#f49a00"/>
      <stop offset="0.02" stop-color="#eb9e03"/>
      <stop offset="0.09" stop-color="#d0a80c"/>
      <stop offset="0.171" stop-color="#bab113"/>
      <stop offset="0.265" stop-color="#a9b819"/>
      <stop offset="0.382" stop-color="#9ebd1d"/>
      <stop offset="0.546" stop-color="#97bf1f"/>
      <stop offset="1" stop-color="#95c020"/>
    </linearGradient>
    <clipPath id="clip-path-26">
      <path id="Path_75" data-name="Path 75" d="M75.9,83a76.659,76.659,0,0,0-7.7-5.4c-.2-.2-.4-.3-.2-.3a1.6,1.6,0,0,1,.8.3,59.5,59.5,0,0,1,7.4,5.3,45.75,45.75,0,0,1,6.6,6.6c.2.3.4.6.3.6,0,.1-.2-.1-.4-.3A54.6,54.6,0,0,0,75.9,83"/>
    </clipPath>
    <linearGradient id="linear-gradient-26" x1="4.083" y1="13.995" x2="4.131" y2="13.995" gradientUnits="objectBoundingBox">
      <stop offset="0" stop-color="#95c020"/>
      <stop offset="0.096" stop-color="#98c227"/>
      <stop offset="0.237" stop-color="#a2c83b"/>
      <stop offset="0.407" stop-color="#b1d15c"/>
      <stop offset="0.599" stop-color="#c7de89"/>
      <stop offset="0.806" stop-color="#e2eec3"/>
      <stop offset="1" stop-color="#fff"/>
    </linearGradient>
    <clipPath id="clip-path-27">
      <path id="Path_77" data-name="Path 77" d="M65.2,75.7a1.6,1.6,0,0,1-.8-.3,41.78,41.78,0,0,0-14.9-3.6,40.814,40.814,0,0,0-15.8,2.4,43.56,43.56,0,0,0-14,8.4,45.188,45.188,0,0,0-10,13.3A44.413,44.413,0,0,0,5.6,119a24.369,24.369,0,0,0-.1,2.7,37.727,37.727,0,0,1-.5-8.9,43.568,43.568,0,0,1,4.3-17A44.259,44.259,0,0,1,19.4,82.4a45.2,45.2,0,0,1,14.3-8.5,42.612,42.612,0,0,1,16.1-2.4,40.032,40.032,0,0,1,15.1,3.8c.3.3.5.4.3.4"/>
    </clipPath>
    <linearGradient id="linear-gradient-27" x1="1.928" y1="3.778" x2="1.94" y2="3.778" xlink:href="#linear-gradient-26"/>
    <clipPath id="clip-path-28">
      <path id="Path_79" data-name="Path 79" d="M52.5,73.2a51.669,51.669,0,0,0-14.7,1.3,43.729,43.729,0,0,0-13.5,5.9,39.3,39.3,0,0,0-5.5,4.4,38.87,38.87,0,0,0-4.6,5.3,39.819,39.819,0,0,0-6.1,12.4,46.408,46.408,0,0,0-1.9,12.3l-.3,1.5c0-1.7.1-3.3.2-5A41.813,41.813,0,0,1,8,102.1a48.287,48.287,0,0,1,3.7-8.8c.4-.8.9-1.5,1.3-2.2L14.5,89a31.363,31.363,0,0,1,3.4-4,34.711,34.711,0,0,1,8.3-6.4c.5-.3,1-.6,1.6-.9.5-.3,1.1-.5,1.6-.8a11.11,11.11,0,0,1,1.6-.7c.3-.1.5-.2.8-.3s.5-.2.8-.3A38.329,38.329,0,0,1,39,73.8l3.3-.6c.6-.1,1.1-.1,1.6-.2a9.7,9.7,0,0,1,1.7-.1,51.2,51.2,0,0,1,6.8-.1,5.639,5.639,0,0,1,.7.1c-.1.3-.3.3-.6.3"/>
    </clipPath>
    <linearGradient id="linear-gradient-28" x1="2.373" y1="4.446" x2="2.388" y2="4.446" xlink:href="#linear-gradient-26"/>
  </defs>
  <g id="logo-splash-experience" transform="translate(-2.511 -67.591)">
    <path id="Path_1" data-name="Path 1" d="M119.4,87.6v8.9h16.1v5H119.4v9.1H138v5H113.9v-33h23.5v5h-18" fill="#f29100"/>
    <path id="Path_2" data-name="Path 2" d="M159.1,87.6v28h-5.5v-28H143.2v-5h26.4v5H159.1" fill="#f29100"/>
    <path id="Path_3" data-name="Path 3" d="M211,110.5v5.1H191.2v-33h5.5v27.9H211" fill="#f29100"/>
    <path id="Path_4" data-name="Path 4" d="M223.6,108.1l-3.2,7.4h-5.8l14.5-32.9h5.7l14.4,32.9h-5.9l-3.2-7.4H223.6m8.3-19.5-6.2,14.6h12.4Z" fill="#f29100"/>
    <path id="Path_5" data-name="Path 5" d="M270.3,82.6c6.8,0,11.1,3.1,11.1,8.2a7.135,7.135,0,0,1-5.8,7.3c4.4.8,7.1,3.9,7.1,8.3,0,5.6-4.6,9-12,9H256V82.6h14.3m-8.8,13.7H270c3.5,0,5.6-1.6,5.6-4.4s-2.1-4.3-5.6-4.3h-8.5Zm0,14.3H270c4.3,0,6.9-1.7,6.9-4.8,0-2.9-2.6-4.7-6.9-4.7h-8.5Z" fill="#f29100"/>
    <path id="Path_6" data-name="Path 6" d="M323.7,99.1c0,9.4-7.6,16.7-17.5,16.7-9.8,0-17.4-7.3-17.4-16.7,0-9.5,7.6-16.6,17.4-16.6,9.9,0,17.5,7.2,17.5,16.6m-29.2,0a11.8,11.8,0,0,0,23.6,0,11.8,11.8,0,0,0-23.6,0Z" fill="#f29100"/>
    <path id="Path_7" data-name="Path 7" d="M346.9,105.6h-9.3v9.9H332V82.6h13.4c8.4,0,13.3,4.1,13.3,11.2,0,5.3-2.4,9-6.8,10.7l7.4,11H353l-6.1-9.9m-1.5-4.9c5.1,0,8-2.2,8-6.6,0-4.3-2.9-6.4-8-6.4h-7.8v13Z" fill="#f29100"/>
    <path id="Path_8" data-name="Path 8" d="M373,108.1l-3.2,7.4H364l14.5-32.9h5.7l14.4,32.9h-5.9l-3.2-7.4H373m8.3-19.5-6.2,14.6h12.4Z" fill="#f29100"/>
    <path id="Path_9" data-name="Path 9" d="M116.8,138.5c0,2.3,0,4.2.1,5.3.1.7.2,1.2.9,1.3.3,0,.9.1,1.1.1a.349.349,0,0,1,.2.1c0,.1-.1.2-.4.2-1.3,0-2.9-.1-3-.1s-1.6.1-2.4.1c-.3,0-.4,0-.4-.2,0-.1,0-.1.2-.1a1.7,1.7,0,0,0,.7-.1c.5-.1.6-.6.7-1.3.1-1,.1-2.9.1-5.3V129a1.306,1.306,0,0,0-.8-1.4,2.485,2.485,0,0,0-.8-.1c-.1,0-.2,0-.2-.1s.1-.2.4-.2c.8,0,2.3.1,2.4.1s1.6-.1,2.4-.1c.3,0,.4,0,.4.2,0,.1-.1.1-.2.1a1.486,1.486,0,0,0-.6.1c-.7.1-.8.5-.9,1.4v9.5" fill="#868686"/>
    <path id="Path_10" data-name="Path 10" d="M135.8,138.5c0,2.3,0,4.2.1,5.3.1.7.2,1.2.9,1.3.3,0,.9.1,1.1.1a.349.349,0,0,1,.2.1c0,.1-.1.2-.4.2-1.3,0-2.9-.1-3-.1s-1.6.1-2.4.1c-.3,0-.4,0-.4-.2,0-.1,0-.1.2-.1a1.7,1.7,0,0,0,.7-.1c.5-.1.6-.6.7-1.3.1-1,.1-2.9.1-5.3V128.3H130c-1.5,0-2.1.2-2.5.8a2.849,2.849,0,0,0-.4.8c-.1.2-.1.2-.2.2s-.1-.1-.1-.2c0-.2.5-2.3.5-2.5,0-.1.1-.5.2-.5a10.978,10.978,0,0,0,1.1.3,14.932,14.932,0,0,0,1.9.1h9.1a13.522,13.522,0,0,0,2.4-.2c.1,0,.1.1.1.3,0,.7-.1,2.4-.1,2.7,0,.2-.1.3-.2.3s-.2-.1-.2-.4v-.3c-.1-.7-.7-1.3-3-1.3h-3.1v10.1" fill="#868686"/>
    <path id="Path_11" data-name="Path 11" d="M150.5,126.2c-.2-.2-.2-.3-.2-.4s.1-.1.2-.1a10.462,10.462,0,0,1,1.7.4.548.548,0,0,1,.4.6,8.474,8.474,0,0,1-2.1,4.8c-.1.1-.2.2-.3.2a.1.1,0,0,1-.1-.1c0-.1,0-.1.1-.3a8.218,8.218,0,0,0,.8-3.5,2.476,2.476,0,0,0-.5-1.6" fill="#868686"/>
    <path id="Path_12" data-name="Path 12" d="M160.8,145.2c-.3-.2-.4-.3-.4-.9,0-1.2.1-2.2.1-2.6,0-.3.1-.4.2-.4s.2.1.2.3a3.085,3.085,0,0,0,.1.9,3.366,3.366,0,0,0,3.6,2.5,3.3,3.3,0,0,0,3.5-3.2c0-1.7-.7-2.6-2.8-4.4l-1.1-.9c-2.6-2.1-3.1-3.6-3.1-5.3,0-2.6,1.9-4.4,5-4.4a15.156,15.156,0,0,1,2.3.2,3.746,3.746,0,0,0,.8.1c.2,0,.2,0,.2.2s-.1.9-.1,2.6c0,.4,0,.6-.2.6-.1,0-.2-.1-.2-.3a5.274,5.274,0,0,0-.3-1.2c-.1-.3-.8-1.3-3-1.3a2.731,2.731,0,0,0-3,2.8c0,1.4.7,2.2,3,4.1l.7.5c2.9,2.3,3.5,3.8,3.5,5.7a4.971,4.971,0,0,1-2.1,4,6.414,6.414,0,0,1-3.7,1,5.924,5.924,0,0,1-3.2-.6" fill="#868686"/>
    <path id="Path_13" data-name="Path 13" d="M194.5,134.3v-5.2c0-.8-.2-1.2-1-1.4-.2,0-.6-.1-.8-.1-.1,0-.2,0-.2-.1s.1-.2.4-.2c1.1,0,2.6.1,2.7.1h5.5c.5,0,.8-.1,1-.1.1,0,.2-.1.3-.1s.1.1.1.2c0,.2-.1.5-.2,1.1,0,.2-.1,1.3-.1,1.6,0,.1-.1.3-.2.3s-.2-.1-.2-.3a3.085,3.085,0,0,0-.1-.9c-.2-.4-.4-.7-1.7-.8-.4,0-3.1-.1-3.3-.1-.1,0-.1.1-.1.2v6.7c0,.2,0,.2.1.2h3.9a1.445,1.445,0,0,0,1.1-.3c.2-.2.3-.3.4-.3s.1,0,.1.2c0,.1-.1.6-.2,1.4,0,.5-.1,1.4-.1,1.6s0,.5-.2.5a.215.215,0,0,1-.2-.2,2.485,2.485,0,0,0-.1-.8c-.1-.3-.3-.8-1.3-.8-.7-.1-3.1-.1-3.5-.1a.215.215,0,0,0-.2.2V143c.1,1.7.4,2,2.8,2a6.083,6.083,0,0,0,2.3-.3,2.169,2.169,0,0,0,1.1-1.7c0-.3.1-.4.2-.4s.1.2.1.4-.2,1.8-.3,2.4c-.2.6-.4.6-1.3.6-3.7,0-5.3-.1-6-.1-.1,0-1.6.1-2.4.1-.3,0-.4,0-.4-.2,0-.1,0-.1.2-.1a1.7,1.7,0,0,0,.7-.1c.5-.1.6-.6.7-1.3.1-1,.1-2.9.1-5.3v-4.7" fill="#868686"/>
    <path id="Path_14" data-name="Path 14" d="M218.4,136.2l-3.9-6.5a4.335,4.335,0,0,0-1.9-1.9,8.375,8.375,0,0,0-1-.2.215.215,0,0,1-.2-.2c0-.1.1-.2.4-.2.7,0,2.6.1,2.8.1s1.5-.1,2.3-.1c.3,0,.4,0,.4.2s-.1.2-.2.2a1.952,1.952,0,0,0-.7.1c-.2.1-.3.2-.3.4a3.092,3.092,0,0,0,.2.8c1,1.9,2,3.7,3.3,5.8.7-1,3.3-5.2,3.6-5.7a1.645,1.645,0,0,0,.2-.9.43.43,0,0,0-.4-.4,1.952,1.952,0,0,0-.7-.1c-.1,0-.2,0-.2-.2,0-.1.1-.2.4-.2.9,0,1.9.1,2.2.1.2,0,1.2-.1,2-.1.3,0,.4.1.4.2s-.1.2-.3.2a2.485,2.485,0,0,0-.8.1c-.7.2-1.2.9-1.9,2l-3.9,5.9c.5.8,4.6,7.8,5.1,8.5a2.586,2.586,0,0,0,1.4,1.1,2.814,2.814,0,0,0,.8.1c.1,0,.2,0,.2.1s-.1.2-.3.2h-3.9c-.6,0-.8-.1-.8-.2s0-.2.1-.2.3-.3.1-.7q-1.95-3.6-4.2-7.2l-3.8,6.4a2.607,2.607,0,0,0-.3,1.1.664.664,0,0,0,.4.5h.5a.215.215,0,0,1,.2.2c0,.1-.1.2-.3.2-.6,0-2.1-.1-2.3-.1s-1.4.1-2.2.1c-.2,0-.2-.1-.2-.2a.215.215,0,0,1,.2-.2,3.085,3.085,0,0,0,.9-.1c.7-.2,1.2-.7,2-2l4.6-7" fill="#868686"/>
    <path id="Path_15" data-name="Path 15" d="M237.4,134.3v-5.2c0-.8-.2-1.2-1-1.4-.2,0-.6-.1-.8-.1-.1,0-.2,0-.2-.1s.1-.2.4-.2c1.1,0,2.5.1,2.7.1.5,0,1.9-.1,3.1-.1,3,0,4.1,1,4.5,1.4a4.351,4.351,0,0,1,1.2,2.9,5.673,5.673,0,0,1-6,5.8h-.5c-.1,0-.3,0-.3-.2s.1-.2.7-.2a3.98,3.98,0,0,0,4.2-3.9,5.073,5.073,0,0,0-1.4-3.7,4.253,4.253,0,0,0-3.3-1.2,2.787,2.787,0,0,0-1,.1c-.1,0-.2.2-.2.5v10c0,2.3,0,4.2.1,5.3.1.7.2,1.2.9,1.3.3,0,.9.1,1.1.1a.349.349,0,0,1,.2.1c0,.1-.1.2-.4.2-1.3,0-2.9-.1-3-.1s-1.6.1-2.3.1c-.3,0-.4,0-.4-.2,0-.1,0-.1.2-.1a1.7,1.7,0,0,0,.7-.1c.5-.1.6-.6.7-1.3.1-1,.1-2.9.1-5.3v-4.5" fill="#868686"/>
    <path id="Path_16" data-name="Path 16" d="M257.8,134.3v-5.2c0-.8-.2-1.2-1-1.4-.2,0-.6-.1-.8-.1-.1,0-.2,0-.2-.1s.1-.2.4-.2c1.1,0,2.6.1,2.7.1h5.5c.5,0,.8-.1,1-.1.1,0,.2-.1.3-.1s.1.1.1.2c0,.2-.1.5-.2,1.1,0,.2-.1,1.3-.1,1.6,0,.1-.1.3-.2.3s-.2-.1-.2-.3a3.085,3.085,0,0,0-.1-.9c-.2-.4-.4-.7-1.7-.8-.4,0-3.1-.1-3.3-.1-.1,0-.1.1-.1.2v6.7c0,.2,0,.2.1.2h3.9a1.445,1.445,0,0,0,1.1-.3c.2-.2.3-.3.4-.3s.1,0,.1.2c0,.1-.1.6-.2,1.4,0,.5-.1,1.4-.1,1.6s0,.5-.2.5a.215.215,0,0,1-.2-.2,2.485,2.485,0,0,0-.1-.8c-.1-.3-.3-.8-1.3-.8-.7-.1-3.1-.1-3.5-.1a.215.215,0,0,0-.2.2V143c.1,1.7.4,2,2.8,2a6.083,6.083,0,0,0,2.3-.3,2.169,2.169,0,0,0,1.1-1.7c0-.3.1-.4.2-.4s.1.2.1.4-.2,1.8-.3,2.4c-.2.6-.4.6-1.3.6-3.7,0-5.3-.1-6-.1-.1,0-1.6.1-2.4.1-.3,0-.4,0-.4-.2,0-.1,0-.1.2-.1a1.7,1.7,0,0,0,.7-.1c.5-.1.6-.6.7-1.3.1-1,.1-2.9.1-5.3v-4.7" fill="#868686"/>
    <path id="Path_17" data-name="Path 17" d="M277.8,134.3v-5.2c0-.8-.2-1.2-1-1.4-.2,0-.6-.1-.8-.1-.1,0-.2,0-.2-.1s.1-.2.4-.2c1.1,0,2.6.1,2.7.1.3,0,2.1-.1,2.9-.1a6.922,6.922,0,0,1,4.4,1.1,4.165,4.165,0,0,1,1.7,3.3c0,1.8-.8,3.6-2.9,5.6,2,2.5,3.6,4.7,5,6.2a4.84,4.84,0,0,0,3,1.7,4.4,4.4,0,0,0,.9.1.349.349,0,0,1,.2.1c0,.1-.1.2-.6.2h-1.7a4.233,4.233,0,0,1-2.6-.5,13.255,13.255,0,0,1-3.3-3.6c-1-1.3-2.2-3-2.6-3.6a.367.367,0,0,0-.3-.1h-3a.215.215,0,0,0-.2.2v.6c0,2.3,0,4.2.1,5.3.1.7.2,1.2.9,1.3.3,0,.9.1,1.1.1a.349.349,0,0,1,.2.1c0,.1-.1.2-.4.2-1.3,0-2.9-.1-3-.1,0,0-1.6.1-2.3.1-.3,0-.4,0-.4-.2,0-.1,0-.1.2-.1a1.7,1.7,0,0,0,.7-.1c.5-.1.6-.6.7-1.3.1-1,.1-2.9.1-5.3v-4.3m2,2.1c0,.1,0,.2.2.3a7.166,7.166,0,0,0,2.5.4,2.9,2.9,0,0,0,1.8-.5,4.587,4.587,0,0,0,1.5-3.7c0-3-1.6-4.8-4.2-4.8-.7,0-1.4.1-1.6.1-.1,0-.2.1-.2.3v7.9Z" fill="#868686"/>
    <path id="Path_18" data-name="Path 18" d="M303.3,138.5c0,2.3,0,4.2.1,5.3.1.7.2,1.2.9,1.3.3,0,.9.1,1.1.1a.349.349,0,0,1,.2.1c0,.1-.1.2-.4.2-1.3,0-2.9-.1-3-.1s-1.6.1-2.4.1c-.3,0-.4,0-.4-.2,0-.1,0-.1.2-.1a1.7,1.7,0,0,0,.7-.1c.5-.1.6-.6.7-1.3.1-1,.1-2.9.1-5.3V129a1.306,1.306,0,0,0-.8-1.4,2.485,2.485,0,0,0-.8-.1c-.1,0-.2,0-.2-.1s.1-.2.4-.2c.8,0,2.3.1,2.4.1s1.6-.1,2.4-.1c.3,0,.4,0,.4.2,0,.1-.1.1-.2.1a1.486,1.486,0,0,0-.6.1c-.7.1-.8.5-.9,1.4v9.5" fill="#868686"/>
    <path id="Path_19" data-name="Path 19" d="M317.1,134.3v-5.2c0-.8-.2-1.2-1-1.4-.2,0-.6-.1-.8-.1-.1,0-.2,0-.2-.1s.1-.2.4-.2c1.1,0,2.6.1,2.7.1h5.5c.5,0,.8-.1,1-.1.1,0,.2-.1.3-.1s.1.1.1.2c0,.2-.1.5-.2,1.1,0,.2-.1,1.3-.1,1.6,0,.1-.1.3-.2.3s-.2-.1-.2-.3a3.085,3.085,0,0,0-.1-.9c-.2-.4-.4-.7-1.7-.8-.4,0-3.1-.1-3.3-.1-.1,0-.1.1-.1.2v6.7c0,.2,0,.2.1.2h3.9a1.445,1.445,0,0,0,1.1-.3c.2-.2.3-.3.4-.3s.1,0,.1.2c0,.1-.1.6-.2,1.4,0,.5-.1,1.4-.1,1.6s0,.5-.2.5a.215.215,0,0,1-.2-.2,2.485,2.485,0,0,0-.1-.8c-.1-.3-.3-.8-1.3-.8-.7-.1-3.1-.1-3.5-.1a.215.215,0,0,0-.2.2V143c.1,1.7.4,2,2.8,2a6.083,6.083,0,0,0,2.3-.3,2.169,2.169,0,0,0,1.1-1.7c0-.3.1-.4.2-.4s.1.2.1.4-.2,1.8-.3,2.4c-.2.6-.4.6-1.3.6-3.7,0-5.3-.1-6-.1-.1,0-1.6.1-2.4.1-.3,0-.4,0-.4-.2,0-.1,0-.1.2-.1a1.7,1.7,0,0,0,.7-.1c.5-.1.6-.6.7-1.3.1-1,.1-2.9.1-5.3v-4.7" fill="#868686"/>
    <path id="Path_20" data-name="Path 20" d="M337.8,142.3c0,2,.3,2.6.9,2.8a6.245,6.245,0,0,0,1.2.1c.1,0,.2,0,.2.1s-.1.2-.4.2c-1.4,0-2.4-.1-2.6-.1s-1.2.1-2.3.1c-.2,0-.4,0-.4-.2,0-.1.1-.1.2-.1a4.142,4.142,0,0,0,1-.1c.6-.2.7-.9.7-3.1V128.1c0-.9.1-1.2.3-1.2s.6.5.8.8c.4.4,4,4.3,7.7,8.3,2.4,2.6,5,5.5,5.8,6.3l-.3-12.3c0-1.6-.2-2.1-.9-2.3a5.739,5.739,0,0,0-1.2-.1c-.2,0-.2-.1-.2-.2s.2-.2.5-.2c1.1,0,2.3.1,2.5.1.3,0,1.1-.1,2.1-.1.3,0,.4,0,.4.2,0,.1-.1.2-.3.2a1.76,1.76,0,0,0-.6.1c-.8.2-.9.7-.9,2.2v14.2c0,1.6,0,1.7-.2,1.7s-.5-.3-1.8-1.6c-.3-.2-3.8-3.8-6.3-6.6-2.8-3-5.5-6.1-6.3-7l.4,11.7" fill="#868686"/>
    <path id="Path_21" data-name="Path 21" d="M365.4,143.3a9.474,9.474,0,0,1-2.9-7.2,9.833,9.833,0,0,1,2.7-6.6c1.5-1.5,3.7-2.6,7.4-2.6a22.563,22.563,0,0,1,3.5.3c.9.2,1.7.3,2.5.4.3,0,.3.1.3.3a11.346,11.346,0,0,0-.1,1.4,17.771,17.771,0,0,1-.1,2.5c0,.4-.1.5-.2.5-.2,0-.2-.2-.2-.5a3.74,3.74,0,0,0-1-2.5,8.047,8.047,0,0,0-4.8-1.4c-3.2,0-4.7.9-5.6,1.8-1.8,1.7-2.2,3.9-2.2,6.3a8.809,8.809,0,0,0,8.7,8.9c1.8,0,3.2-.2,4.2-1.2a4.977,4.977,0,0,0,.9-2c0-.3.1-.4.2-.4s.2.2.2.4-.3,2.3-.5,3.1c-.1.5-.2.5-.6.7a13.745,13.745,0,0,1-4.4.6c-3.6-.2-6.1-1.1-8-2.8" fill="#868686"/>
    <path id="Path_22" data-name="Path 22" d="M390,134.3v-5.2c0-.8-.2-1.2-1-1.4-.2,0-.6-.1-.8-.1-.1,0-.2,0-.2-.1s.1-.2.4-.2c1.1,0,2.6.1,2.7.1h5.5c.5,0,.8-.1,1-.1.1,0,.2-.1.3-.1s.1.1.1.2c0,.2-.1.5-.2,1.1,0,.2-.1,1.3-.1,1.6,0,.1-.1.3-.2.3s-.2-.1-.2-.3a3.085,3.085,0,0,0-.1-.9c-.2-.4-.4-.7-1.7-.8-.4,0-3.1-.1-3.3-.1-.1,0-.1.1-.1.2v6.7c0,.2,0,.2.1.2h3.9a1.445,1.445,0,0,0,1.1-.3c.2-.2.3-.3.4-.3s.1,0,.1.2c0,.1-.1.6-.2,1.4,0,.5-.1,1.4-.1,1.6s0,.5-.2.5a.215.215,0,0,1-.2-.2,2.485,2.485,0,0,0-.1-.8c-.1-.3-.3-.8-1.3-.8-.7-.1-3.1-.1-3.5-.1a.215.215,0,0,0-.2.2V143c.1,1.7.4,2,2.8,2a6.083,6.083,0,0,0,2.3-.3,2.169,2.169,0,0,0,1.1-1.7c0-.3.1-.4.2-.4s.1.2.1.4-.2,1.8-.3,2.4c-.2.6-.4.6-1.3.6-3.7,0-5.3-.1-6-.1-.1,0-1.6.1-2.4.1-.3,0-.4,0-.4-.2,0-.1,0-.1.2-.1a1.7,1.7,0,0,0,.7-.1c.5-.1.6-.6.7-1.3.1-1,.1-2.9.1-5.3v-4.7" fill="#868686"/>
    <g id="Group_2" data-name="Group 2">
      <g id="Group_1" data-name="Group 1" clip-path="url(#clip-path)">
        <path id="Path_23" data-name="Path 23" d="M.8,157l90.7,3.6,3.7-92.8L4.5,64.2Z" fill="url(#linear-gradient)"/>
      </g>
    </g>
    <g id="Group_4" data-name="Group 4">
      <g id="Group_3" data-name="Group 3" clip-path="url(#clip-path-2)">
        <path id="Path_25" data-name="Path 25" d="M25.7,198.6l108.7-62.8L71.8,27.4-36.9,90.2Z" fill="url(#linear-gradient-2)"/>
      </g>
    </g>
    <g id="Group_6" data-name="Group 6">
      <g id="Group_5" data-name="Group 5" clip-path="url(#clip-path-3)">
        <path id="Path_27" data-name="Path 27" d="M83.8,135.9l1.1-1-1-1.2-1.2,1.1Z" fill="url(#linear-gradient-3)"/>
      </g>
    </g>
    <g id="Group_8" data-name="Group 8">
      <g id="Group_7" data-name="Group 7" clip-path="url(#clip-path-4)">
        <path id="Path_29" data-name="Path 29" d="M91.7,125.1l.5-.5-.5-.5-.5.4Z" fill="url(#linear-gradient-4)"/>
      </g>
    </g>
    <g id="Group_10" data-name="Group 10">
      <g id="Group_9" data-name="Group 9" clip-path="url(#clip-path-5)">
        <path id="Path_31" data-name="Path 31" d="M45.8,71.7l.4-.3-.4-.4-.4.3Z" fill="url(#linear-gradient-5)"/>
      </g>
    </g>
    <g id="Group_12" data-name="Group 12">
      <g id="Group_11" data-name="Group 11" clip-path="url(#clip-path-6)">
        <path id="Path_33" data-name="Path 33" d="M76.8,83.9l.4-.4-.3-.4-.5.4Z" fill="url(#linear-gradient-6)"/>
      </g>
    </g>
    <g id="Group_14" data-name="Group 14">
      <g id="Group_13" data-name="Group 13" clip-path="url(#clip-path-7)">
        <path id="Path_35" data-name="Path 35" d="M63.4,169.7,94.3,141l-28-30.3-31,28.7Z" fill="url(#linear-gradient-7)"/>
      </g>
    </g>
    <g id="Group_16" data-name="Group 16">
      <g id="Group_15" data-name="Group 15" clip-path="url(#clip-path-8)">
        <path id="Path_37" data-name="Path 37" d="M64.1,146.8l.6-.6-.6-.6-.6.6Z" fill="url(#linear-gradient-8)"/>
      </g>
    </g>
    <g id="Group_18" data-name="Group 18">
      <g id="Group_17" data-name="Group 17" clip-path="url(#clip-path-9)">
        <path id="Path_39" data-name="Path 39" d="M62.7,147.1l.4-.3-.3-.4-.4.4Z" fill="url(#linear-gradient-9)"/>
      </g>
    </g>
    <g id="Group_20" data-name="Group 20">
      <g id="Group_19" data-name="Group 19" clip-path="url(#clip-path-10)">
        <path id="Path_41" data-name="Path 41" d="M86,131.7l15.9-14.8L86.4,100.1l-16,14.7Z" fill="url(#linear-gradient-10)"/>
      </g>
    </g>
    <g id="Group_22" data-name="Group 22">
      <g id="Group_21" data-name="Group 21" clip-path="url(#clip-path-11)">
        <path id="Path_43" data-name="Path 43" d="M83.7,135.3,104,116.5,84.3,95.1,63.9,113.9Z" fill="url(#linear-gradient-11)"/>
      </g>
    </g>
    <g id="Group_24" data-name="Group 24">
      <g id="Group_23" data-name="Group 23" clip-path="url(#clip-path-12)">
        <path id="Path_45" data-name="Path 45" d="M17.7,119.5,44.8,94.4,19.4,66.9-7.7,92Z" fill="url(#linear-gradient-12)"/>
      </g>
    </g>
    <g id="Group_26" data-name="Group 26">
      <g id="Group_25" data-name="Group 25" clip-path="url(#clip-path-13)">
        <path id="Path_47" data-name="Path 47" d="M91.7,111.3,103,100.8,92.1,89.1,80.8,99.5Z" fill="url(#linear-gradient-13)"/>
      </g>
    </g>
    <g id="Group_28" data-name="Group 28">
      <g id="Group_27" data-name="Group 27" clip-path="url(#clip-path-14)">
        <path id="Path_49" data-name="Path 49" d="M55.7,151.4l3.3-3-2.9-3.2-3.3,3.1Z" fill="url(#linear-gradient-14)"/>
      </g>
    </g>
    <g id="Group_30" data-name="Group 30">
      <g id="Group_29" data-name="Group 29" clip-path="url(#clip-path-15)">
        <path id="Path_51" data-name="Path 51" d="M86.8,139.4l1.5-1.3-1.4-1.5-1.5,1.3Z" fill="url(#linear-gradient-15)"/>
      </g>
    </g>
    <g id="Group_32" data-name="Group 32">
      <g id="Group_31" data-name="Group 31" clip-path="url(#clip-path-16)">
        <path id="Path_53" data-name="Path 53" d="M85.2,95.5l.6-.6-.6-.6-.6.6Z" fill="url(#linear-gradient-16)"/>
      </g>
    </g>
    <g id="Group_34" data-name="Group 34">
      <g id="Group_33" data-name="Group 33" clip-path="url(#clip-path-17)">
        <path id="Path_55" data-name="Path 55" d="M83.2,95.3l1-.9-1-1-.9.9Z" fill="url(#linear-gradient-17)"/>
      </g>
    </g>
    <g id="Group_36" data-name="Group 36">
      <g id="Group_35" data-name="Group 35" clip-path="url(#clip-path-18)">
        <path id="Path_57" data-name="Path 57" d="M7.1,114.4l.7-.7-.6-.7-.7.7Z" fill="url(#linear-gradient-18)"/>
      </g>
    </g>
    <g id="Group_38" data-name="Group 38">
      <g id="Group_37" data-name="Group 37" clip-path="url(#clip-path-19)">
        <path id="Path_59" data-name="Path 59" d="M84.6,94.3l.5-.4-.4-.5-.5.4Z" fill="url(#linear-gradient-19)"/>
      </g>
    </g>
    <g id="Group_40" data-name="Group 40">
      <g id="Group_39" data-name="Group 39" clip-path="url(#clip-path-20)">
        <path id="Path_61" data-name="Path 61" d="M33.3,77.1l.6-.5-.6-.6-.5.6Z" fill="url(#linear-gradient-20)"/>
      </g>
    </g>
    <g id="Group_42" data-name="Group 42">
      <g id="Group_41" data-name="Group 41" clip-path="url(#clip-path-21)">
        <path id="Path_63" data-name="Path 63" d="M94.9,115.3l.5-.4-.5-.6-.4.5Z" fill="url(#linear-gradient-21)"/>
      </g>
    </g>
    <g id="Group_44" data-name="Group 44">
      <g id="Group_43" data-name="Group 43" clip-path="url(#clip-path-22)">
        <path id="Path_65" data-name="Path 65" d="M7.2,111.3l.3-.2-.3-.4-.3.3Z" fill="url(#linear-gradient-22)"/>
      </g>
    </g>
    <g id="Group_46" data-name="Group 46">
      <g id="Group_45" data-name="Group 45" clip-path="url(#clip-path-23)">
        <path id="Path_67" data-name="Path 67" d="M34.3,76.6l.4-.4-.4-.4-.4.4Z" fill="url(#linear-gradient-23)"/>
      </g>
    </g>
    <g id="Group_48" data-name="Group 48">
      <g id="Group_47" data-name="Group 47" clip-path="url(#clip-path-24)">
        <path id="Path_69" data-name="Path 69" d="M89,91.1l.4-.4-.4-.5-.4.5Z" fill="url(#linear-gradient-24)"/>
      </g>
    </g>
    <g id="Group_50" data-name="Group 50">
      <g id="Group_49" data-name="Group 49" clip-path="url(#clip-path-25)">
        <path id="Path_71" data-name="Path 71" d="M90,56.4l16.5,96.5L9.4,169.6-7.1,73Z" fill="url(#linear-gradient-25)"/>
      </g>
    </g>
    <path id="Path_73" data-name="Path 73" d="M76.6,140.7a3.171,3.171,0,0,0,.5-.6,31.172,31.172,0,0,0,5.3-5,51.3,51.3,0,0,0,4.4-6,12.2,12.2,0,0,0,.7-1.7,40.819,40.819,0,0,0,3-11.9,43.885,43.885,0,0,0-.8-14,38.419,38.419,0,0,0-1.9-5.1,30.986,30.986,0,0,0-2.6-4.7c-.5-.7-1-1.5-1.5-2.2-.3-.4-.5-.7-.8-1.1a7.632,7.632,0,0,1-.8-1.1,9.016,9.016,0,0,0-.9-1c-.3-.3-.6-.7-.9-1s-.6-.7-.9-1l-.5-.5-.5-.5a38.885,38.885,0,0,0-7.4-6,39.9,39.9,0,0,0-8.6-4.1A44.142,44.142,0,0,0,43.8,71,44.02,44.02,0,0,0,27,77c-.7.5-1.4.8-1.5.6-.1-.1.4-.6,1.2-1.1a48.3,48.3,0,0,1,8.2-4.1c-.1,0-.2,0-.1-.1A42.023,42.023,0,0,0,11.1,93.2c-.3.5-.5.9-.6.9s0-.5.3-1.1A41.011,41.011,0,0,1,21.2,79.7a42.445,42.445,0,0,1,14.7-8.1,4.951,4.951,0,0,1,1.3-.4,41.878,41.878,0,0,1,6.9-1.3,54.255,54.255,0,0,1,7-.1A42.258,42.258,0,0,1,64.6,73a45.933,45.933,0,0,1,8.7,4.8,45.246,45.246,0,0,1,7.3,6.5,37.114,37.114,0,0,1,5.6,8,38.241,38.241,0,0,1,3.6,9.2,40.947,40.947,0,0,1,.6,15.6,35.838,35.838,0,0,1-1.4,6.5,28.266,28.266,0,0,1-1.1,3.1c-.2.5-.4,1-.6,1.4-.2.5-.5.9-.7,1.4a38.756,38.756,0,0,1-4.6,6.4,40.368,40.368,0,0,1-5.4,4.8c0,.2-.1.2,0,0" fill="#9c9b9b"/>
    <g id="Group_52" data-name="Group 52">
      <g id="Group_51" data-name="Group 51" clip-path="url(#clip-path-26)">
        <path id="Path_74" data-name="Path 74" d="M68.4,74.5,65.5,89.8l17.1,3.3,2.9-15.3Z" fill="url(#linear-gradient-26)"/>
      </g>
    </g>
    <g id="Group_54" data-name="Group 54">
      <g id="Group_53" data-name="Group 53" clip-path="url(#clip-path-27)">
        <path id="Path_76" data-name="Path 76" d="M6.9,60.3-4.4,120.1,63.2,133,74.6,73.2Z" fill="url(#linear-gradient-27)"/>
      </g>
    </g>
    <g id="Group_56" data-name="Group 56">
      <g id="Group_55" data-name="Group 55" clip-path="url(#clip-path-28)">
        <path id="Path_78" data-name="Path 78" d="M7.6,64.2l-9.7,50.7,53.5,10.2,9.7-50.7Z" fill="url(#linear-gradient-28)"/>
      </g>
    </g>
    <path id="Path_80" data-name="Path 80" d="M36.8,71.7a45.183,45.183,0,0,1,16.4-.3,45.654,45.654,0,0,1,15.5,5.5A42.181,42.181,0,0,1,88.5,103a41.315,41.315,0,0,1-4.4,30.8,39.647,39.647,0,0,1-10.3,11.6,38.262,38.262,0,0,1-13.3,6.5c-.3.1-.4,0-.3,0a4.875,4.875,0,0,1,.7-.3A38.547,38.547,0,0,0,74,145a39.167,39.167,0,0,0,10-11.4,40.407,40.407,0,0,0,4.2-30.5A42.119,42.119,0,0,0,75,82c-.4-.3-.8-.7-1.2-1l-1.2-1c-.8-.6-1.7-1.2-2.6-1.8s-1.8-1.1-2.7-1.6a24.371,24.371,0,0,0-2.8-1.4c-.9-.4-1.9-.8-2.9-1.2-.5-.2-1-.3-1.5-.5a1.854,1.854,0,0,0-.7-.2l-.8-.2c-.5-.1-1-.3-1.5-.4a8.33,8.33,0,0,1-1.5-.4c-.5-.1-1-.2-1.6-.3-.3,0-.5-.1-.8-.1l-.8-.1a46.622,46.622,0,0,0-8.3-.4,52.937,52.937,0,0,0-8,.9c-.4.1-.7.1-.6,0a2.618,2.618,0,0,1,1.3-.6" fill="#868686"/>
    <path id="Path_81" data-name="Path 81" d="M80.8,136A41.145,41.145,0,0,0,87,123.4a51.3,51.3,0,0,0,1.3-6.6,49.951,49.951,0,0,0,.1-6.7,40.014,40.014,0,0,0-3.1-12.8,43.38,43.38,0,0,0-17-19.7,3.609,3.609,0,0,1-.5-.4,3.933,3.933,0,0,1,.6.2,42.115,42.115,0,0,1,7.1,5.5,41.116,41.116,0,0,1,5.7,6.8,46.4,46.4,0,0,1,4.3,7.9,43.862,43.862,0,0,1,2.7,8.7,20.024,20.024,0,0,1,.4,2.4c.1.8.2,1.6.3,2.5a40.055,40.055,0,0,1,0,4.9,33.71,33.71,0,0,1-2.1,9.8c-.2.5-.4,1.1-.6,1.6s-.5,1-.7,1.5-.5,1-.7,1.5a2.506,2.506,0,0,1-.4.7c-.1.2-.3.5-.4.7a49.3,49.3,0,0,1-3.6,5.3c-.6.8-1.3,1.6-2,2.4-.4.4-.7.8-1.1,1.2a11.406,11.406,0,0,0-1.1,1.1,49.282,49.282,0,0,1-4.9,4.2,1.1,1.1,0,0,1-.6.3,1.726,1.726,0,0,1,.3-.4,54.557,54.557,0,0,0,9.8-10" fill="#868686"/>
    <path id="Path_82" data-name="Path 82" d="M36.8,72.9a45.183,45.183,0,0,1,16.4-.3,45.654,45.654,0,0,1,15.5,5.5,42.181,42.181,0,0,1,19.8,26.1A41.315,41.315,0,0,1,84.1,135a39.647,39.647,0,0,1-10.3,11.6,38.262,38.262,0,0,1-13.3,6.5c-.3.1-.4,0-.3,0a4.875,4.875,0,0,1,.7-.3A38.547,38.547,0,0,0,74,146.2a39.167,39.167,0,0,0,10-11.4,40.407,40.407,0,0,0,4.2-30.5A42.119,42.119,0,0,0,75,83.2c-.4-.3-.8-.7-1.2-1l-1.2-1c-.8-.6-1.7-1.2-2.6-1.8s-1.8-1.1-2.7-1.6a24.371,24.371,0,0,0-2.8-1.4c-.9-.4-1.9-.8-2.9-1.2-.5-.2-1-.3-1.5-.5a1.854,1.854,0,0,0-.7-.2l-.8-.2c-.5-.1-1-.3-1.5-.4a8.33,8.33,0,0,1-1.5-.4c-.5-.1-1-.2-1.6-.3-.3,0-.5-.1-.8-.1l-.8-.1a46.622,46.622,0,0,0-8.3-.4,52.937,52.937,0,0,0-8,.9c-.4.1-.7.1-.6,0a2.618,2.618,0,0,1,1.3-.6" fill="#868686"/>
    <path id="Path_83" data-name="Path 83" d="M80.8,137.2A41.145,41.145,0,0,0,87,124.6a51.3,51.3,0,0,0,1.3-6.6,49.951,49.951,0,0,0,.1-6.7,40.014,40.014,0,0,0-3.1-12.8,43.38,43.38,0,0,0-17-19.7,3.609,3.609,0,0,1-.5-.4,3.933,3.933,0,0,1,.6.2,42.115,42.115,0,0,1,7.1,5.5,41.116,41.116,0,0,1,5.7,6.8,46.4,46.4,0,0,1,4.3,7.9,43.862,43.862,0,0,1,2.7,8.7,20.024,20.024,0,0,1,.4,2.4c.1.8.2,1.6.3,2.5a40.055,40.055,0,0,1,0,4.9,33.71,33.71,0,0,1-2.1,9.8c-.2.5-.4,1.1-.6,1.6s-.5,1-.7,1.5-.5,1-.7,1.5a2.506,2.506,0,0,1-.4.7c-.1.2-.3.5-.4.7a49.3,49.3,0,0,1-3.6,5.3c-.6.8-1.3,1.6-2,2.4-.4.4-.7.8-1.1,1.2a11.406,11.406,0,0,0-1.1,1.1,49.282,49.282,0,0,1-4.9,4.2,1.1,1.1,0,0,1-.6.3,1.726,1.726,0,0,1,.3-.4,54.558,54.558,0,0,0,9.8-10" fill="#868686"/>
  </g>
</svg>
